<?xml version="1.0" standalone="no"?>
<!DOCTYPE svg PUBLIC "-//W3C//DTD SVG 20010904//EN"
 "http://www.w3.org/TR/2001/REC-SVG-20010904/DTD/svg10.dtd">
<svg version="1.0" xmlns="http://www.w3.org/2000/svg"
 width="32.000000pt" height="31.000000pt" viewBox="0 0 32.000000 31.000000"
 preserveAspectRatio="xMidYMid meet">
<g transform="translate(0.000000,31.000000) scale(0.100000,-0.100000)"
fill="#000000" stroke="none">
<path d="M16 294 c-17 -17 -21 -34 -8 -34 5 0 19 11 32 25 19 20 20 25 7 25
-8 0 -23 -7 -31 -16z"/>
<path d="M223 295 c0 -8 4 -12 9 -9 5 3 6 10 3 15 -9 13 -12 11 -12 -6z"/>
<path d="M257 304 c-3 -3 -3 -12 0 -20 4 -10 9 -11 17 -4 12 9 13 6 6 -45 0
-5 -8 3 -16 19 -11 19 -19 25 -26 18 -6 -6 -17 -8 -26 -5 -11 5 -13 3 -7 -8 8
-12 6 -12 -8 0 -9 7 -15 16 -13 20 2 3 -25 5 -60 5 -58 -2 -95 -15 -92 -32 0
-4 -1 -9 -2 -12 -9 -25 -6 -38 8 -33 10 4 13 2 8 -5 -4 -7 -1 -12 9 -12 10 0
13 -5 9 -12 -6 -10 -5 -10 8 0 12 10 17 10 26 0 12 -16 12 -12 12 -90 0 -45 3
-59 10 -48 8 13 10 12 10 -2 0 -10 5 -18 11 -18 5 0 8 4 5 9 -3 5 9 12 27 15
l32 6 -3 69 c-3 62 -2 69 17 74 12 3 19 2 17 -2 -3 -4 5 -8 17 -8 16 -2 18 0
8 6 -11 7 -10 11 5 19 18 9 19 5 21 -61 2 -40 -2 -76 -8 -84 -9 -10 -8 -13 2
-13 11 0 11 -2 -1 -9 -8 -6 -17 -8 -21 -5 -4 2 -11 -1 -15 -7 -5 -8 -3 -9 6
-4 10 6 12 4 7 -8 -4 -11 -1 -15 14 -12 37 7 39 15 39 150 0 123 -2 135 -19
145 -23 12 -26 12 -34 4z m-87 -74 c0 -18 -7 -20 -55 -20 -48 0 -55 2 -55 20
0 18 7 20 55 20 48 0 55 -2 55 -20z m80 0 c0 -16 -7 -20 -37 -20 l-38 0 30 19
c39 25 45 25 45 1z m-80 -100 c0 -63 -2 -70 -20 -70 -18 0 -20 7 -20 58 0 53
11 82 32 82 4 0 8 -31 8 -70z"/>
<path d="M64 43 c2 -10 6 -17 10 -16 15 3 16 11 2 22 -12 10 -14 9 -12 -6z"/>
<path d="M0 38 c0 -9 30 -38 39 -38 4 0 7 10 7 23 0 16 -6 22 -23 22 -13 0
-23 -3 -23 -7z"/>
<path d="M175 30 c-3 -5 -2 -10 4 -10 5 0 13 5 16 10 3 6 2 10 -4 10 -5 0 -13
-4 -16 -10z"/>
<path d="M206 13 c-6 -14 -5 -15 5 -6 7 7 10 15 7 18 -3 3 -9 -2 -12 -12z"/>
</g>
</svg>
